<?xml version="1.0" encoding="utf-8"?>
<!-- Generator: Adobe Illustrator 21.0.0, SVG Export Plug-In . SVG Version: 6.00 Build 0)  -->
<svg version="1.1" id="Warstwa_1" xmlns="http://www.w3.org/2000/svg" xmlns:xlink="http://www.w3.org/1999/xlink" x="0px" y="0px"
	 viewBox="0 0 32 32" style="enable-background:new 0 0 32 32;" xml:space="preserve">
<style type="text/css">
	.st0{fill:#79BCB8;}
	.st1{fill:#222629;}
	.st2{fill:#F5F5F5;}
</style>
<g>
	<rect x="0" class="st0" width="32" height="32"/>
	<rect x="0" class="st1" width="5.2" height="32"/>
	<path class="st0" d="M5.2,9.9c8.9,0,17.9,0,26.8,0c0,4.7,0,9.3,0,14c-9,0-17.9,0-26.8,0C5.2,19.2,5.2,14.6,5.2,9.9z M5.8,20
		c0.2,0,0.3,0,0.4,0c2.1,0,4.2,0,6.3,0c0.8,0,1.6-0.6,1.5-1.6c0-1.7,0-3.4,0-5.1c0-1-0.5-1.6-1.6-1.6c-2.1,0-4.2,0-6.3,0
		c-0.1,0-0.3,0-0.4,0C5.8,14.6,5.8,17.3,5.8,20z M21.9,19c-0.1,0-0.3,0-0.4,0c-0.7,0-1.4,0-2.1,0c-0.9,0-1.8,0-2.7,0
		c-0.3,0-0.5-0.1-0.5-0.4c0-0.5,0-1,0-1.5c1.9,0,3.8,0,5.8,0c0-0.8,0-1.6,0-2.3c0-0.9-0.6-1.5-1.4-1.5c-1.3,0-2.6,0-3.9,0
		c-0.8,0-1.4,0.6-1.4,1.4c0,1.3,0,2.5,0,3.8c0,0.8,0.6,1.4,1.4,1.4c1.7,0,3.3,0,5,0c0.1,0,0.2,0,0.4,0C21.9,19.7,21.9,19.4,21.9,19z
		 M22.5,13.4c0.1,0.1,0.1,0.2,0.2,0.3c1,1.9,2.1,3.7,3.1,5.6c0.3,0.5,0.5,0.8,1.1,0.7c0.3,0,0.4-0.1,0.6-0.3c1-1.9,2.1-3.8,3.1-5.7
		c0.1-0.2,0.2-0.4,0.3-0.6c-0.3,0-0.6,0-0.8,0c-0.2,0-0.4,0.1-0.5,0.3c-0.4,0.8-0.9,1.6-1.3,2.4c-0.5,1-1.1,1.9-1.6,2.9
		c-0.1-0.2-0.2-0.3-0.2-0.4c-0.9-1.7-1.8-3.3-2.7-5c-0.1-0.1-0.2-0.2-0.3-0.3C23.2,13.4,22.9,13.4,22.5,13.4z"/>
	<path class="st2" d="M5.8,20c0-2.7,0-5.4,0-8.2c0.1,0,0.3,0,0.4,0c2.1,0,4.2,0,6.3,0c1,0,1.6,0.5,1.6,1.6c0,1.7,0,3.4,0,5.1
		c0,0.9-0.7,1.6-1.5,1.6c-2.1,0-4.2,0-6.3,0C6.1,20,6,20,5.8,20z M9.9,12.8c-0.9,0-1.7,0-2.6,0c-0.5,0-0.6,0.1-0.6,0.6
		c0,1.7,0,3.4,0,5.1c0,0.4,0.2,0.6,0.6,0.6c1.7,0,3.4,0,5.1,0c0.4,0,0.6-0.1,0.6-0.6c0-1.7,0-3.4,0-5.1c0-0.5-0.1-0.6-0.6-0.6
		C11.6,12.7,10.8,12.8,9.9,12.8z"/>
	<path class="st2" d="M21.9,19c0,0.3,0,0.6,0,0.9c-0.1,0-0.2,0-0.4,0c-1.7,0-3.3,0-5,0c-0.8,0-1.4-0.6-1.4-1.4c0-1.3,0-2.5,0-3.8
		c0-0.8,0.6-1.4,1.4-1.4c1.3,0,2.6,0,3.9,0c0.9,0,1.4,0.6,1.4,1.5c0,0.8,0,1.5,0,2.3c-1.9,0-3.8,0-5.8,0c0,0.5,0,1,0,1.5
		c0,0.3,0.3,0.4,0.5,0.4c0.9,0,1.8,0,2.7,0c0.7,0,1.4,0,2.1,0C21.7,19,21.8,19,21.9,19z M16.2,16.2c1.6,0,3.2,0,4.8,0
		c0-0.5,0-0.9,0-1.4c0-0.2-0.1-0.4-0.4-0.4c-1.3,0-2.6,0-4,0c-0.2,0-0.4,0.1-0.4,0.4C16.2,15.2,16.2,15.7,16.2,16.2z"/>
	<path class="st2" d="M22.5,13.4c0.4,0,0.7,0,1,0c0.1,0,0.2,0.2,0.3,0.3c0.9,1.7,1.8,3.3,2.7,5c0.1,0.1,0.1,0.2,0.2,0.4
		c0.5-1,1.1-2,1.6-2.9c0.4-0.8,0.9-1.6,1.3-2.4c0.1-0.2,0.2-0.3,0.5-0.3c0.3,0,0.5,0,0.8,0c-0.1,0.2-0.2,0.4-0.3,0.6
		c-1,1.9-2.1,3.8-3.1,5.7c-0.1,0.3-0.3,0.3-0.6,0.3c-0.6,0.1-0.9-0.2-1.1-0.7c-1-1.9-2.1-3.8-3.1-5.6C22.6,13.6,22.6,13.5,22.5,13.4
		z"/>
	<path class="st2" d="M3.8,13.5c0.3,0,0.5,0,0.8,0c0,0.1,0,0.3,0,0.4c0,2.4,0,4.8,0,7.3c0,1-0.5,1.6-1.6,1.6c-0.8,0-1.6,0-2.4,0
		c0-0.3,0-0.5,0-0.8c0.3,0,0.6,0,0.9,0c0.5,0,1.1,0,1.6,0c0.5,0,0.6-0.1,0.6-0.6c0-2.4,0-4.9,0-7.3C3.8,13.8,3.8,13.7,3.8,13.5z"/>
	<path class="st2" d="M3.8,11.3c0.3,0,0.5,0,0.8,0c0,0.3,0,0.5,0,0.8c-0.3,0-0.5,0-0.8,0C3.8,11.9,3.8,11.6,3.8,11.3z"/>
	<path class="st0" d="M9.9,12.8c0.9,0,1.7,0,2.6,0c0.5,0,0.6,0.1,0.6,0.6c0,1.7,0,3.4,0,5.1c0,0.4-0.1,0.6-0.6,0.6
		c-1.7,0-3.4,0-5.1,0c-0.4,0-0.6-0.2-0.6-0.6c0-1.7,0-3.4,0-5.1c0-0.5,0.1-0.6,0.6-0.6C8.2,12.7,9.1,12.8,9.9,12.8z"/>
	<path class="st0" d="M16.2,16.2c0-0.5,0-1,0-1.5c0-0.2,0.1-0.4,0.4-0.4c1.3,0,2.6,0,4,0c0.3,0,0.4,0.2,0.4,0.4c0,0.5,0,0.9,0,1.4
		C19.4,16.2,17.8,16.2,16.2,16.2z"/>
	<path class="st1" d="M5.2,23.9c0-4.7,0-9.3,0-14c-1.7,0-3.5,0-5.2,0c0,4.7,0,9.3,0,14H5.2z M3.8,11.3c0.3,0,0.5,0,0.8,0
		c0,0.3,0,0.5,0,0.8c-0.3,0-0.5,0-0.8,0C3.8,11.9,3.8,11.6,3.8,11.3z M1.5,21.9c0.5,0,1.1,0,1.6,0c0.5,0,0.6-0.1,0.6-0.6
		c0-2.4,0-4.9,0-7.3c0-0.1,0-0.3,0-0.5c0.3,0,0.5,0,0.8,0c0,0.1,0,0.3,0,0.4c0,2.4,0,4.8,0,7.3c0,1-0.5,1.6-1.6,1.6
		c-0.8,0-1.6,0-2.4,0c0-0.3,0-0.5,0-0.8C0.9,21.9,1.2,21.9,1.5,21.9z"/>
</g>
</svg>
